<?xml version="1.0" encoding="UTF-8" standalone="no"?>
<!-- Created with Inkscape (http://www.inkscape.org/) -->

<svg
   width="1425.1254mm"
   height="797.48541mm"
   viewBox="0 0 1425.1254 797.48541"
   version="1.1"
   id="svg1"
   inkscape:version="1.3 (0e150ed6c4, 2023-07-21)"
   sodipodi:docname="pinball.svg"
   xmlns:inkscape="http://www.inkscape.org/namespaces/inkscape"
   xmlns:sodipodi="http://sodipodi.sourceforge.net/DTD/sodipodi-0.dtd"
   xmlns="http://www.w3.org/2000/svg"
   xmlns:svg="http://www.w3.org/2000/svg">
  <sodipodi:namedview
     id="namedview1"
     pagecolor="#ffffff"
     bordercolor="#000000"
     borderopacity="0.25"
     inkscape:showpageshadow="2"
     inkscape:pageopacity="0.0"
     inkscape:pagecheckerboard="0"
     inkscape:deskcolor="#d1d1d1"
     inkscape:document-units="mm"
     inkscape:zoom="0.17691139"
     inkscape:cx="1992.523"
     inkscape:cy="1772.0736"
     inkscape:window-width="1920"
     inkscape:window-height="1094"
     inkscape:window-x="-11"
     inkscape:window-y="-11"
     inkscape:window-maximized="1"
     inkscape:current-layer="layer1"
     showguides="false" />
  <defs
     id="defs1" />
  <g
     inkscape:label="Layer 1"
     inkscape:groupmode="layer"
     id="layer1"
     transform="translate(-3.5,329.93542)">
    <g
       id="panel6248">
      <path
         style="fill:none;stroke:#000000;stroke-width:1"
         d="m 96.35,382.8 h 20.684 v -4.1 h 20.15 v 4.1 h 20.609 v -4.1 h 20.15 v 4.1 h 20.609 v -4.1 h 20.15 v 4.1 h 20.609 v -4.1 h 20.15 v 4.1 h 20.609 v -4.1 h 20.15 v 4.1 h 20.61 v -4.1 h 20.15 v 4.1 h 20.609 v -4.1 h 20.15 v 4.1 h 20.609 v -4.1 h 20.15 v 4.1 h 20.609 v -4.1 h 20.15 v 4.1 h 20.609 v -4.1 h 20.15 v 4.1 H 524.7"
         id="path1" />
      <path
         style="fill:none;stroke:#000000;stroke-width:1"
         d="m 524.7,382.8 v 30.15 h -4.1 v 19.85 h 4.1 v 30.15"
         id="path2" />
      <path
         style="fill:none;stroke:#000000;stroke-width:1"
         d="m 524.7,462.95 h -20.684 v 4.1 h -20.15 v -4.1 h -20.609 v 4.1 h -20.15 v -4.1 h -20.609 v 4.1 h -20.15 v -4.1 h -20.609 v 4.1 h -20.15 v -4.1 H 340.98 v 4.1 h -20.15 v -4.1 h -20.61 v 4.1 h -20.15 v -4.1 h -20.609 v 4.1 h -20.15 v -4.1 h -20.609 v 4.1 h -20.15 v -4.1 h -20.609 v 4.1 h -20.15 v -4.1 h -20.609 v 4.1 h -20.15 v -4.1 H 96.35"
         id="path3" />
      <path
         style="fill:none;stroke:#000000;stroke-width:1"
         d="M 96.35,462.95 V 432.8 h 4.1 v -19.85 h -4.1 V 382.8"
         id="path4" />
    </g>
    <g
       id="panel3054">
      <path
         style="fill:none;stroke:#000000;stroke-width:1"
         d="m 8.1,100.45 h 30 v -4.1 h 20.15 v 4.1 h 30"
         id="path5" />
      <path
         style="fill:none;stroke:#000000;stroke-width:1"
         d="m 88.25,100.45 v 18.446 h 4.1 v 20.15 h -4.1 v 22.472 h 4.1 v 20.15 h -4.1 v 22.471 h 4.1 v 20.15 h -4.1 v 22.472 h 4.1 v 20.15 h -4.1 v 22.471 h 4.1 v 20.15 h -4.1 v 22.472 h 4.1 v 20.15 h -4.1 V 370.6"
         id="path6" />
      <path
         style="fill:none;stroke:#000000;stroke-width:1"
         d="m 88.25,370.6 h -30 v 4.1 H 38.1 v -4.1 h -30"
         id="path7" />
      <path
         style="fill:none;stroke:#000000;stroke-width:1"
         d="M 8.1,370.6 V 352.154 H 4 v -20.15 H 8.1 V 309.532 H 4 v -20.15 H 8.1 V 266.911 H 4 v -20.15 H 8.1 V 224.289 H 4 v -20.15 H 8.1 V 181.668 H 4 v -20.15 H 8.1 V 139.046 H 4 v -20.15 H 8.1 V 100.45"
         id="path8" />
    </g>
    <g
       id="panel8918">
      <path
         style="fill:none;stroke:#000000;stroke-width:1"
         d="m 96.35,96.35 h 20.834 v 4.1 h 19.85 v -4.1 h 20.909 v 4.1 h 19.85 v -4.1 h 20.909 v 4.1 h 19.85 v -4.1 h 20.909 v 4.1 h 19.85 v -4.1 h 20.909 v 4.1 h 19.85 v -4.1 h 20.91 v 4.1 h 19.85 v -4.1 h 20.909 v 4.1 h 19.85 v -4.1 h 20.909 v 4.1 h 19.85 v -4.1 h 20.909 v 4.1 h 19.85 v -4.1 h 20.909 v 4.1 h 19.85 v -4.1 H 524.7"
         id="path9" />
      <path
         style="fill:none;stroke:#000000;stroke-width:1"
         d="m 524.7,96.35 v 22.696 h -4.1 v 19.85 h 4.1 v 22.772 h -4.1 v 19.85 h 4.1 v 22.771 h -4.1 v 19.85 h 4.1 v 22.772 h -4.1 v 19.85 h 4.1 v 22.771 h -4.1 v 19.85 h 4.1 v 22.772 h -4.1 v 19.85 h 4.1 V 374.7"
         id="path10" />
      <path
         style="fill:none;stroke:#000000;stroke-width:1"
         d="m 524.7,374.7 h -20.834 v -4.1 h -19.85 v 4.1 h -20.909 v -4.1 h -19.85 v 4.1 h -20.909 v -4.1 h -19.85 v 4.1 h -20.909 v -4.1 h -19.85 v 4.1 H 340.83 v -4.1 h -19.85 v 4.1 h -20.91 v -4.1 h -19.85 v 4.1 h -20.909 v -4.1 h -19.85 v 4.1 h -20.909 v -4.1 h -19.85 v 4.1 h -20.909 v -4.1 h -19.85 v 4.1 h -20.909 v -4.1 h -19.85 v 4.1 H 96.35"
         id="path11" />
      <path
         style="fill:none;stroke:#000000;stroke-width:1"
         d="m 96.35,374.7 v -22.696 h 4.1 v -19.85 h -4.1 v -22.772 h 4.1 v -19.85 h -4.1 v -22.771 h 4.1 v -19.85 h -4.1 v -22.772 h 4.1 v -19.85 h -4.1 v -22.771 h 4.1 v -19.85 h -4.1 v -22.772 h 4.1 v -19.85 h -4.1 V 96.35"
         id="path12" />
    </g>
    <g
       id="panel6962">
      <path
         style="fill:none;stroke:#000000;stroke-width:1"
         d="m 532.8,100.45 h 30 v -4.1 h 20.15 v 4.1 h 30"
         id="path13" />
      <path
         style="fill:none;stroke:#000000;stroke-width:1"
         d="m 612.95,100.45 v 18.446 h 4.1 v 20.15 h -4.1 v 22.472 h 4.1 v 20.15 h -4.1 v 22.471 h 4.1 v 20.15 h -4.1 v 22.472 h 4.1 v 20.15 h -4.1 v 22.471 h 4.1 v 20.15 h -4.1 v 22.472 h 4.1 v 20.15 h -4.1 V 370.6"
         id="path14" />
      <path
         style="fill:none;stroke:#000000;stroke-width:1"
         d="m 612.95,370.6 h -30 v 4.1 H 562.8 v -4.1 h -30"
         id="path15" />
      <path
         style="fill:none;stroke:#000000;stroke-width:1"
         d="m 532.8,370.6 v -18.446 h -4.1 v -20.15 h 4.1 v -22.472 h -4.1 v -20.15 h 4.1 v -22.471 h -4.1 v -20.15 h 4.1 v -22.472 h -4.1 v -20.15 h 4.1 v -22.471 h -4.1 v -20.15 h 4.1 v -22.472 h -4.1 v -20.15 h 4.1 V 100.45"
         id="path16" />
    </g>
    <g
       id="panel8206">
      <path
         style="fill:none;stroke:#000000;stroke-width:1"
         d="m 96.35,8.1 h 20.684 V 4 h 20.15 v 4.1 h 20.609 V 4 h 20.15 v 4.1 h 20.609 V 4 h 20.15 v 4.1 h 20.609 V 4 h 20.15 V 8.1 H 280.07 V 4 h 20.15 v 4.1 h 20.61 V 4 h 20.15 v 4.1 h 20.609 V 4 h 20.15 v 4.1 h 20.609 V 4 h 20.15 v 4.1 h 20.609 V 4 h 20.15 v 4.1 h 20.609 V 4 h 20.15 V 8.1 H 524.7"
         id="path21" />
      <path
         style="fill:none;stroke:#000000;stroke-width:1"
         d="m 524.7,8.1 v 30.15 h -4.1 V 58.1 h 4.1 v 30.15"
         id="path22" />
      <path
         style="fill:none;stroke:#000000;stroke-width:1"
         d="m 524.7,88.25 h -20.684 v 4.1 h -20.15 v -4.1 h -20.609 v 4.1 h -20.15 v -4.1 h -20.609 v 4.1 h -20.15 v -4.1 h -20.609 v 4.1 h -20.15 v -4.1 H 340.98 v 4.1 h -20.15 v -4.1 h -20.61 v 4.1 h -20.15 v -4.1 h -20.609 v 4.1 h -20.15 v -4.1 h -20.609 v 4.1 h -20.15 v -4.1 h -20.609 v 4.1 h -20.15 v -4.1 h -20.609 v 4.1 h -20.15 v -4.1 H 96.35"
         id="path23" />
      <path
         style="fill:none;stroke:#000000;stroke-width:1"
         d="M 96.35,88.25 V 58.1 h 4.1 V 38.25 h -4.1 V 8.1"
         id="path24" />
    </g>
    <circle
       style="fill:#1a1a1a;fill-opacity:1;stroke:#000000;stroke-width:0.264584;stroke-opacity:1"
       id="path25"
       cx="131.46819"
       cy="421.52502"
       r="6.0177078" />
    <circle
       style="fill:#1a1a1a;fill-opacity:1;stroke:#000000;stroke-width:0.264584;stroke-opacity:1"
       id="path25-2"
       cx="138.96819"
       cy="-46.825001"
       transform="scale(1,-1)"
       r="6.0177078" />
    <rect
       style="fill:#000000;fill-opacity:0;stroke:#000000;stroke-width:1;stroke-dasharray:none;stroke-opacity:1"
       id="rect25"
       width="417.70001"
       height="267.70001"
       x="676.83124"
       y="103.05605" />
    <rect
       style="fill:#1a1a1a;fill-opacity:0;stroke:#000000;stroke-width:1;stroke-dasharray:none;stroke-opacity:0.9875"
       id="rect26"
       width="284.1553"
       height="4.3623009"
       x="1016.3785"
       y="-210.04654" />
    <path
       id="rect27"
       style="fill:#1a1a1a;fill-opacity:0;stroke:#000000;stroke-width:0.999996;stroke-dasharray:none;stroke-opacity:1"
       d="M 908.71175,-224.04636 V 41.560683 h 61.95041 v 0 c -28.0603,-1.14253 -50.58095,-61.39505 -50.60934,-132.98465 0.0285,-71.589393 22.54914,-131.479863 50.60934,-132.622393 v 0 z"
       sodipodi:nodetypes="cccccccc" />
    <path
       id="rect28"
       style="fill:#000000;fill-opacity:0;stroke:#000000;stroke-width:1;stroke-dasharray:none;stroke-opacity:0.9875"
       d="m 1035.6269,-15.150316 c -0.069,0.0432 -8.3559,15.28370033 -21.2704,28.580671 -10.001,10.29731 -22.77714,19.42909 -36.66074,19.43479 v 0 h 57.96294 v -48.015461 z"
       sodipodi:nodetypes="csccccc" />
    <path
       id="rect29-1"
       style="fill:#1a1a1a;fill-opacity:0;stroke:#000000;stroke-width:1;stroke-linejoin:round;stroke-dasharray:none;stroke-opacity:0.9875"
       d="m 1230.1532,-11.572597 a 10.349052,10.979784 1.514692 0 0 10.1904,-11.17924 10.349052,10.979784 1.514692 0 0 -0.5223,-3.24347 l -10.0009,-46.0579 -9.7258,46.38683 a 10.349052,10.979784 1.514692 0 0 -0.4477,3.31802 10.349052,10.979784 1.514692 0 0 10.5063,10.77576 z" />
    <path
       id="rect29-1-3"
       style="fill:#1a1a1a;fill-opacity:0;stroke:#000000;stroke-width:1;stroke-linejoin:round;stroke-dasharray:none;stroke-opacity:0.9875"
       d="m 1227.5782,-159.55613 a 10.979784,10.349052 89.601102 0 0 -9.8114,11.51329 10.979784,10.349052 89.601102 0 0 0.6303,3.22422 l 11.5333,45.698263 8.1714,-46.685733 a 10.979784,10.349052 89.601102 0 0 0.3366,-3.33112 10.979784,10.349052 89.601102 0 0 -10.8602,-10.41892 z" />
    <path
       id="rect32"
       style="fill:#1a1a1a;fill-opacity:0;stroke:#000000;stroke-width:1;stroke-linejoin:round;stroke-dasharray:none;stroke-opacity:1"
       d="m 1051.7972,-6.4548474 22.5536,20.6704604 27.9915,27.34507 h -50.5451 z"
       sodipodi:nodetypes="ccccc" />
    <path
       id="path37"
       style="fill:#6e6e6e;fill-opacity:0;stroke:#000000;stroke-width:1;stroke-linejoin:round;stroke-dasharray:none;stroke-opacity:1"
       d="m 841.00423,-9.4998561 a 23.599995,23.6 0 0 0 -13.10566,4.00596 7.6000004,7.6000004 0 0 1 0.0894,-0.00621 7.6000004,7.6000004 0 0 1 7.60006,7.60006 7.6000004,7.6000004 0 0 1 -7.60006,7.60005 7.6000004,7.6000004 0 0 1 -7.55974,-7.03575 23.599995,23.6 0 0 0 -3.02411,11.4354801 23.599995,23.6 0 0 0 3.05821,11.49852 7.6000004,7.6000004 0 0 1 7.52564,-6.55618 7.6000004,7.6000004 0 0 1 7.60006,7.60005 7.6000004,7.6000004 0 0 1 -6.90552,7.55044 23.599995,23.6 0 0 0 12.32172,3.50728 23.599995,23.6 0 0 0 12.43645,-3.54965 7.6000004,7.6000004 0 0 1 -6.45077,-7.50807 7.6000004,7.6000004 0 0 1 7.60006,-7.60005 7.6000004,7.6000004 0 0 1 7.39438,5.85183 23.599995,23.6 0 0 0 2.61999,-10.79417 23.599995,23.6 0 0 0 -2.54971,-10.6530901 7.6000004,7.6000004 0 0 1 -7.46466,6.25336 7.6000004,7.6000004 0 0 1 -7.60006,-7.60005 7.6000004,7.6000004 0 0 1 7.19853,-7.57112 23.599995,23.6 0 0 0 -13.18421,-4.02869 z" />
    <path
       id="path37-1"
       style="fill:#6e6e6e;fill-opacity:0;stroke:#000000;stroke-width:1;stroke-linejoin:round;stroke-dasharray:none;stroke-opacity:1"
       d="m 760.66635,-8.4347996 a 23.599995,23.6 0 0 0 -13.10566,4.00596 7.6000004,7.6000004 0 0 1 0.0894,-0.006 7.6000004,7.6000004 0 0 1 7.60006,7.60006 7.6000004,7.6000004 0 0 1 -7.60006,7.6000496 7.6000004,7.6000004 0 0 1 -7.55974,-7.0357496 23.599995,23.6 0 0 0 -3.02411,11.4354796 23.599995,23.6 0 0 0 3.05821,11.49852 7.6000004,7.6000004 0 0 1 7.52564,-6.55618 7.6000004,7.6000004 0 0 1 7.60006,7.60005 7.6000004,7.6000004 0 0 1 -6.90552,7.55044 23.599995,23.6 0 0 0 12.32172,3.50728 23.599995,23.6 0 0 0 12.43645,-3.54965 7.6000004,7.6000004 0 0 1 -6.45077,-7.50807 7.6000004,7.6000004 0 0 1 7.60006,-7.60005 7.6000004,7.6000004 0 0 1 7.39438,5.85183 23.599995,23.6 0 0 0 2.61999,-10.79417 23.599995,23.6 0 0 0 -2.54971,-10.6530896 7.6000004,7.6000004 0 0 1 -7.46466,6.2533596 7.6000004,7.6000004 0 0 1 -7.60006,-7.6000496 7.6000004,7.6000004 0 0 1 7.19853,-7.57112 23.599995,23.6 0 0 0 -13.18421,-4.02869 z" />
    <path
       id="path37-8"
       style="fill:#6e6e6e;fill-opacity:0;stroke:#000000;stroke-width:1;stroke-linejoin:round;stroke-dasharray:none;stroke-opacity:1"
       d="m 796.78578,-66.337996 a 23.599995,23.6 0 0 0 -13.10566,4.00596 7.6000004,7.6000004 0 0 1 0.0894,-0.006 7.6000004,7.6000004 0 0 1 7.60006,7.60006 7.6000004,7.6000004 0 0 1 -7.60006,7.60005 7.6000004,7.6000004 0 0 1 -7.55974,-7.03575 23.599995,23.6 0 0 0 -3.02411,11.43548 23.599995,23.6 0 0 0 3.05821,11.49852 7.6000004,7.6000004 0 0 1 7.52564,-6.55618 7.6000004,7.6000004 0 0 1 7.60006,7.60005 7.6000004,7.6000004 0 0 1 -6.90552,7.55044 23.599995,23.6 0 0 0 12.32172,3.50728 23.599995,23.6 0 0 0 12.43645,-3.54965 7.6000004,7.6000004 0 0 1 -6.45077,-7.50807 7.6000004,7.6000004 0 0 1 7.60006,-7.60005 7.6000004,7.6000004 0 0 1 7.39438,5.85183 23.599995,23.6 0 0 0 2.61999,-10.79417 23.599995,23.6 0 0 0 -2.54971,-10.65309 7.6000004,7.6000004 0 0 1 -7.46466,6.25336 7.6000004,7.6000004 0 0 1 -7.60006,-7.60005 7.6000004,7.6000004 0 0 1 7.19853,-7.57112 23.599995,23.6 0 0 0 -13.18421,-4.02869 z" />
    <ellipse
       style="fill:#000000;fill-opacity:1;stroke:#000000;stroke-width:1;stroke-linejoin:round;stroke-dasharray:none;stroke-opacity:1"
       id="path36"
       cx="841.00427"
       cy="14.1"
       rx="5.5999951"
       ry="4.5999951" />
    <rect
       style="fill:#000000;fill-opacity:1;stroke:#000000;stroke-width:1;stroke-linejoin:round;stroke-dasharray:none;stroke-opacity:1"
       id="rect36"
       width="6.1999903"
       height="17.199989"
       x="837.9043"
       y="15.665155" />
    <path
       id="rect30-6"
       style="fill:#1a1a1a;fill-opacity:0;stroke:#000000;stroke-width:1;stroke-linejoin:round;stroke-dasharray:none;stroke-opacity:0.9875"
       d="m 1192.7368,-177.68473 20.3473,22.7806 -0.939,-32.87334 -95.2155,2.50581 z"
       sodipodi:nodetypes="ccccc" />
    <path
       id="rect1-8"
       style="fill:none;stroke:#000000;stroke-width:0.999997;stroke-linejoin:round"
       d="m 1283.5735,-101.70495 31.8615,0.0317 0.1275,-98.31551 -85.067,-0.0845 z"
       sodipodi:nodetypes="ccccc" />
    <path
       id="rect1-8-3"
       style="fill:none;stroke:#000000;stroke-width:0.999997;stroke-linejoin:round"
       d="m 1156.4405,252.02999 31.8615,-0.0317 0.1275,98.31552 -85.067,0.0845 z"
       sodipodi:nodetypes="ccccc" />
    <path
       id="rect1-8-3-0"
       style="fill:none;stroke:#000000;stroke-width:0.999997;stroke-linejoin:round"
       d="m 1181.0951,94.847502 31.8615,-0.0317 0.1275,98.315518 -85.067,0.0845 z"
       sodipodi:nodetypes="ccccc" />
    <path
       id="rect1-8-3-9"
       style="fill:#000000;fill-opacity:0;stroke:#000000;stroke-width:0.999991;stroke-linejoin:round"
       d="m 1157.5341,257.66155 26.7794,-0.0287 0.1073,89.04941 -71.4985,0.0767 z"
       sodipodi:nodetypes="ccccc" />
    <path
       id="rect1-8-3-7"
       style="fill:none;stroke:#000000;stroke-width:0.999997;stroke-linejoin:round"
       d="m 1333.103,180.71295 31.8615,-0.0317 0.1275,98.31552 -85.067,0.0845 z"
       sodipodi:nodetypes="ccccc" />
    <path
       id="rect1-8-3-9-6"
       style="fill:#000000;fill-opacity:0;stroke:#000000;stroke-width:0.999991;stroke-linejoin:round"
       d="m 1334.1966,186.34451 26.7794,-0.0287 0.1073,89.04941 -71.4985,0.0767 z"
       sodipodi:nodetypes="ccccc" />
    <path
       id="rect30-6-1"
       style="fill:#1a1a1a;fill-opacity:0;stroke:#000000;stroke-width:1;stroke-linejoin:round;stroke-dasharray:none;stroke-opacity:0.9875"
       d="m 1196.6401,7.1793526 20.1132,-22.9875096 -0.6027,32.88122 -95.2362,-1.53188 z"
       sodipodi:nodetypes="ccccc" />
    <rect
       style="fill:#1a1a1a;fill-opacity:0;stroke:#000000;stroke-width:1;stroke-dasharray:none;stroke-opacity:0.9875"
       id="rect26-5"
       width="284.1553"
       height="4.3623009"
       x="590.37695"
       y="-316.93118" />
    <path
       id="rect27-3"
       style="fill:#1a1a1a;fill-opacity:0;stroke:#000000;stroke-width:0.999996;stroke-dasharray:none;stroke-opacity:1"
       d="m 462.72925,-316.93118 v 265.607041 h 61.95041 v 0 c -28.0603,-1.14253 -50.58095,-61.395051 -50.60934,-132.984651 0.0285,-71.58939 22.54914,-131.47986 50.60934,-132.62239 v 0 z"
       sodipodi:nodetypes="cccccccc" />
    <path
       id="rect28-1"
       style="fill:#000000;fill-opacity:0;stroke:#000000;stroke-width:1;stroke-dasharray:none;stroke-opacity:0.9875"
       d="m 609.62536,-122.03495 c -0.069,0.0432 -8.3559,15.2837 -21.2704,28.580675 -10.001,10.29731 -22.77714,19.42909 -36.66074,19.43479 v 0 h 57.96294 v -48.015465 z"
       sodipodi:nodetypes="csccccc" />
    <path
       id="rect29-1-6"
       style="fill:#1a1a1a;fill-opacity:0;stroke:#000000;stroke-width:1;stroke-linejoin:round;stroke-dasharray:none;stroke-opacity:0.9875"
       d="m 804.15166,-118.45723 a 10.349052,10.979784 1.514692 0 0 10.1904,-11.17924 10.349052,10.979784 1.514692 0 0 -0.5223,-3.24347 l -10.0009,-46.0579 -9.7258,46.38683 a 10.349052,10.979784 1.514692 0 0 -0.4477,3.31802 10.349052,10.979784 1.514692 0 0 10.5063,10.77576 z" />
    <path
       id="rect29-1-3-7"
       style="fill:#1a1a1a;fill-opacity:0;stroke:#000000;stroke-width:1;stroke-linejoin:round;stroke-dasharray:none;stroke-opacity:0.9875"
       d="m 801.57666,-266.44076 a 10.979784,10.349052 89.601102 0 0 -9.8114,11.51329 10.979784,10.349052 89.601102 0 0 0.6303,3.22422 l 11.5333,45.69826 8.1714,-46.68573 a 10.979784,10.349052 89.601102 0 0 0.3366,-3.33112 10.979784,10.349052 89.601102 0 0 -10.8602,-10.41892 z" />
    <path
       id="rect32-4"
       style="fill:#1a1a1a;fill-opacity:0;stroke:#000000;stroke-width:1;stroke-linejoin:round;stroke-dasharray:none;stroke-opacity:1"
       d="m 625.79566,-113.33948 22.5536,20.670463 27.9915,27.34507 h -50.5451 z"
       sodipodi:nodetypes="ccccc" />
    <path
       id="rect30-6-7"
       style="fill:#1a1a1a;fill-opacity:0;stroke:#000000;stroke-width:1;stroke-linejoin:round;stroke-dasharray:none;stroke-opacity:0.9875"
       d="m 766.73526,-284.56936 20.3473,22.7806 -0.939,-32.87334 -95.2155,2.50581 z"
       sodipodi:nodetypes="ccccc" />
    <path
       id="rect1-8-31"
       style="fill:none;stroke:#000000;stroke-width:0.999997;stroke-linejoin:round"
       d="m 1355.7236,32.030313 31.8615,0.0317 0.1275,-98.31551 -85.067,-0.0845 z"
       sodipodi:nodetypes="ccccc" />
    <path
       id="rect1-8-31-8"
       style="fill:none;stroke:#000000;stroke-width:0.999997;stroke-linejoin:round"
       d="m 1386.0519,-101.70495 31.8615,0.0317 0.1275,-98.31551 -85.067,-0.0845 z"
       sodipodi:nodetypes="ccccc" />
    <path
       id="rect30-6-1-6"
       style="fill:#1a1a1a;fill-opacity:0;stroke:#000000;stroke-width:1;stroke-linejoin:round;stroke-dasharray:none;stroke-opacity:0.9875"
       d="m 770.63856,-99.705277 20.1132,-22.987513 -0.6027,32.881223 -95.2362,-1.53188 z"
       sodipodi:nodetypes="ccccc" />
    <path
       id="rect27-3-8"
       style="fill:#1a1a1a;fill-opacity:0;stroke:#000000;stroke-width:0.999996;stroke-dasharray:none;stroke-opacity:1"
       d="m 55.096095,-294.6621 v 265.607038 h 61.950415 v 0 c -28.060305,-1.14253 -50.580955,-61.395051 -50.609345,-132.984648 0.0285,-71.58939 22.54914,-131.47986 50.609345,-132.62239 v 0 z"
       sodipodi:nodetypes="cccccccc" />
    <path
       id="rect28-1-6"
       style="fill:#000000;fill-opacity:0;stroke:#000000;stroke-width:1;stroke-dasharray:none;stroke-opacity:0.9875"
       d="m 201.99221,-99.765873 c -0.069,0.0432 -8.3559,15.2837 -21.2704,28.580675 -10.001,10.29731 -22.77714,19.42909 -36.66074,19.43479 v 0 h 57.96294 v -48.015465 z"
       sodipodi:nodetypes="csccccc" />
    <path
       id="rect29-1-6-3"
       style="fill:#1a1a1a;fill-opacity:0;stroke:#000000;stroke-width:1;stroke-linejoin:round;stroke-dasharray:none;stroke-opacity:0.9875"
       d="m 427.58265,-63.929942 a 10.349052,10.979784 1.514692 0 0 10.1904,-11.17924 10.349052,10.979784 1.514692 0 0 -0.5223,-3.24347 l -10.0009,-46.057898 -9.7258,46.386828 a 10.349052,10.979784 1.514692 0 0 -0.4477,3.31802 10.349052,10.979784 1.514692 0 0 10.5063,10.77576 z" />
    <path
       id="rect29-1-3-7-7"
       style="fill:#1a1a1a;fill-opacity:0;stroke:#000000;stroke-width:1;stroke-linejoin:round;stroke-dasharray:none;stroke-opacity:0.9875"
       d="m 425.00765,-211.91347 a 10.979784,10.349052 89.601102 0 0 -9.8114,11.51329 10.979784,10.349052 89.601102 0 0 0.6303,3.22422 l 11.5333,45.69826 8.1714,-46.68573 a 10.979784,10.349052 89.601102 0 0 0.3366,-3.33112 10.979784,10.349052 89.601102 0 0 -10.8602,-10.41892 z" />
    <path
       id="rect32-4-6"
       style="fill:#1a1a1a;fill-opacity:0;stroke:#000000;stroke-width:1;stroke-linejoin:round;stroke-dasharray:none;stroke-opacity:1"
       d="m 218.16251,-91.070403 22.5536,20.670463 27.9915,27.34507 h -50.5451 z"
       sodipodi:nodetypes="ccccc" />
    <path
       id="rect30-6-7-9"
       style="fill:#1a1a1a;fill-opacity:0;stroke:#000000;stroke-width:1;stroke-linejoin:round;stroke-dasharray:none;stroke-opacity:0.9875"
       d="m 359.10211,-262.30028 20.3473,22.7806 -0.939,-32.87334 -95.2155,2.50581 z"
       sodipodi:nodetypes="ccccc" />
    <path
       id="rect30-6-1-6-0"
       style="fill:#1a1a1a;fill-opacity:0;stroke:#000000;stroke-width:1;stroke-linejoin:round;stroke-dasharray:none;stroke-opacity:0.9875"
       d="m 363.00541,-77.4362 20.1132,-22.98751 -0.6027,32.88122 -95.2362,-1.53188 z"
       sodipodi:nodetypes="ccccc" />
    <rect
       style="fill:#161616;fill-opacity:0;stroke:#000000;stroke-width:0.999995;stroke-linejoin:round;stroke-dasharray:none"
       id="rect20"
       width="23.511"
       height="70.528"
       x="1179.2207"
       y="111.75243" />
  </g>
</svg>
